<?xml version="1.0" encoding="UTF-8" standalone="no"?>
<svg xmlns:dc="http://purl.org/dc/elements/1.1/" xmlns:cc="http://creativecommons.org/ns#" xmlns:rdf="http://www.w3.org/1999/02/22-rdf-syntax-ns#" xmlns:svg="http://www.w3.org/2000/svg" xmlns="http://www.w3.org/2000/svg" xmlns:sodipodi="http://sodipodi.sourceforge.net/DTD/sodipodi-0.dtd" xmlns:inkscape="http://www.inkscape.org/namespaces/inkscape" width="790" height="450" viewBox="0 0 790 450" id="svg5929" version="1.1" inkscape:version="0.48.2 r9819" sodipodi:docname="Periodic_table 03.svg">
  <metadata id="metadata6730">
    <rdf:RDF>
      <cc:Work rdf:about="">
        <dc:format>image/svg+xml</dc:format>
        <dc:type rdf:resource="http://purl.org/dc/dcmitype/StillImage"/>
        <dc:title/>
      </cc:Work>
    </rdf:RDF>
  </metadata>
  <defs id="defs6728"/>
  <path style="fill:#ff99cc" id="path5933" d="m 143.5,330.5 v -36 h 36 v 36 z"/>
  <path style="fill:#ffbfff" id="path5935" d="m 143.5,290.5 v -36 h 36 v 36 z"/>
  <g transform="translate(383.5,330.5)" id="unknown class" style="fill:#e8e8e8;stroke:#000000;stroke-width:1">
    <path d="M 0,0 V -36 H 36 V 0 z" id="path5940"/>
    <path d="M 40,0 V -36 H 76 V 0 z" id="path5942"/>
    <path d="m 80,0 v -36 h 36 V 0 z" id="path5944"/>
    <path d="m 160,0 v -36 h 36 V 0 z" id="path5946"/>
    <path d="m 200,0 v -36 h 36 V 0 z" id="path5948"/>
    <path d="m 240,0 v -36 h 36 V 0 z" id="path5950"/>
    <path d="m 280,0 v -36 h 36 V 0 z" id="path5952"/>
    <path d="m 320,0 v -36 h 36 V 0 z" id="path5954"/>
    <path d="m 360,0 v -36 h 36 V 0 z" id="path5956"/>
  </g>
  <g id="other nonmetals" style="fill:#a0ffa0;stroke:#000000;stroke-width:1" transform="translate(-0.5,-56.5)">
    <path d="m 64,147 v -36 h 36 v 36 z" id="path5959"/>
    <path d="m 664,267 v -36 h 36 v 36 z" id="path5961"/>
    <path d="m 624,227 v -36 h 36 v 36 z" id="path5963"/>
    <path d="m 664,227 v -36 h 36 v 36 z" id="path5965"/>
    <path d="m 584,187 v -36 h 36 v 36 z" id="path5967"/>
    <path d="m 624,187 v -36 h 36 v 36 z" id="path5969"/>
    <path d="m 664,187 v -36 h 36 v 36 z" id="path5971"/>
  </g>
  <g transform="translate(63.5,-56.5)" id="alkali metals" style="fill:#ff6666;stroke:#000000;stroke-width:1">
    <path d="m 0,387 v -36 h 36 v 36 z" id="path5974"/>
    <path d="m 0,347 v -36 h 36 v 36 z" id="path5976"/>
    <path d="m 0,267 v -36 h 36 v 36 z" id="path5978"/>
    <path d="m 0,227 v -36 h 36 v 36 z" id="path5980"/>
    <path d="m 0,187 v -36 h 36 v 36 z" id="path5982"/>
    <path d="m 0,307 v -36 h 36 v 36 z" id="path5984"/>
  </g>
  <g transform="translate(103.5,130.5)" id="alkali earth metals" style="fill:#ffdead;stroke:#000000;stroke-width:1">
    <path d="M 0,0 V -36 H 36 V 0 z" id="path5987"/>
    <path d="M 0,40 V 4 h 36 v 36 z" id="path5989"/>
    <path d="M 0,80 V 44 h 36 v 36 z" id="path5991"/>
    <path d="M 0,120 V 84 h 36 v 36 z" id="path5993"/>
    <path d="m 0,160 v -36 h 36 v 36 z" id="path5995"/>
    <path d="m 0,200 v -36 h 36 v 36 z" id="path5997"/>
  </g>
  <path style="fill:#cccc99;stroke:#000000;stroke-width:1" id="path6000" d="m 543.5,130.5 v -36 h 36 v 36 z"/>
  <path style="fill:#cccc99;stroke:#000000;stroke-width:1" id="path6002" d="m 583.5,170.5 v -36 h 36 v 36 z"/>
  <path style="fill:#cccc99;stroke:#000000;stroke-width:1" id="path6004" d="m 583.5,210.5 v -36 h 36 v 36 z"/>
  <path style="fill:#cccc99;stroke:#000000;stroke-width:1" id="path6006" d="m 623.5,210.5 v -36 h 36 v 36 z"/>
  <path style="fill:#cccc99;stroke:#000000;stroke-width:1" id="path6008" d="m 623.5,250.5 v -36 h 36 v 36 z"/>
  <path style="fill:#cccc99;stroke:#000000;stroke-width:1" id="path6010" d="m 663.5,250.5 v -36 h 36 v 36 z"/>
  <path style="fill:#cccccc;stroke:#000000;stroke-width:1" id="path6012" d="m 663.5,290.5 v -36 h 36 v 36 z"/>
  <g transform="translate(703.5,130.5)" id="halogens" style="fill:#ffff99;stroke:#000000;stroke-width:1">
    <path d="M 0,0 V -36 H 36 V 0 z" id="path6015"/>
    <path d="M 0,40 V 4 h 36 v 36 z" id="path6017"/>
    <path d="M 0,80 V 44 h 36 v 36 z" id="path6019"/>
    <path d="M 0,120 V 84 h 36 v 36 z" id="path6021"/>
    <path d="m 0,160 v -36 h 36 v 36 z" id="path6023"/>
  </g>
  <g transform="translate(743.5,90.5)" id="noble gases" style="fill:#c0ffff;stroke:#000000;stroke-width:1">
    <path d="M 0,0 V -36 H 36 V 0 z" id="path6026"/>
    <path d="M 0,40 V 4 h 36 v 36 z" id="path6028"/>
    <path d="M 0,80 V 44 h 36 v 36 z" id="path6030"/>
    <path d="M 0,120 V 84 h 36 v 36 z" id="path6032"/>
    <path d="m 0,160 v -36 h 36 v 36 z" id="path6034"/>
    <path d="m 0,200 v -36 h 36 v 36 z" id="path6036"/>
  </g>
  <g id="post-transition metals" style="fill:#cccccc;stroke:#000000;stroke-width:1;fill-opacity:1" transform="translate(-0.5,-56.5)">
    <path d="m 544,227 v -36 h 36 v 36 z" id="path6039" style="fill:#cccccc;fill-opacity:1"/>
    <path d="m 544,267 v -36 h 36 v 36 z" id="path6041" style="fill:#cccccc;fill-opacity:1"/>
    <path d="m 544,307 v -36 h 36 v 36 z" id="path6043" style="fill:#cccccc;fill-opacity:1"/>
    <path d="m 544,347 v -36 h 36 v 36 z" id="path6045" style="fill:#cccccc;fill-opacity:1"/>
    <path d="m 584,307 v -36 h 36 v 36 z" id="path6047" style="fill:#cccccc;fill-opacity:1"/>
    <path d="m 584,347 v -36 h 36 v 36 z" id="path6049" style="fill:#cccccc;fill-opacity:1"/>
    <path d="m 624,347 v -36 h 36 v 36 z" id="path6051" style="fill:#cccccc;fill-opacity:1"/>
  </g>
  <g transform="translate(183.5,210.5)" id="transition metals" style="fill:#ffc0c0;stroke:#000000;stroke-width:1">
    <path d="M 0,120 V 84 h 36 v 36 z" id="path6054"/>
    <path d="M 40,120 V 84 h 36 v 36 z" id="path6056"/>
    <path d="M 80,120 V 84 h 36 v 36 z" id="path6058"/>
    <path d="M 120,120 V 84 h 36 v 36 z" id="path6060"/>
    <path d="M 160,120 V 84 h 36 v 36 z" id="path6062"/>
    <path d="M 320,120 V 84 h 36 v 36 z" id="path6064"/>
    <path d="M 0,80 V 44 h 36 v 36 z" id="path6066"/>
    <path d="M 40,80 V 44 h 36 v 36 z" id="path6068"/>
    <path d="M 80,80 V 44 h 36 v 36 z" id="path6070"/>
    <path d="M 120,80 V 44 h 36 v 36 z" id="path6072"/>
    <path d="M 160,80 V 44 h 36 v 36 z" id="path6074"/>
    <path d="M 200,80 V 44 h 36 v 36 z" id="path6076"/>
    <path d="M 240,80 V 44 h 36 v 36 z" id="path6078"/>
    <path d="M 280,80 V 44 h 36 v 36 z" id="path6080"/>
    <path d="M 320,80 V 44 h 36 v 36 z" id="path6082"/>
    <path d="M -40,40 V 4 h 36 v 36 z" id="path6084"/>
    <path d="M 0,40 V 4 h 36 v 36 z" id="path6086"/>
    <path d="M 40,40 V 4 h 36 v 36 z" id="path6088"/>
    <path d="M 80,40 V 4 h 36 v 36 z" id="path6090"/>
    <path d="M 120,40 V 4 h 36 v 36 z" id="path6092"/>
    <path d="M 160,40 V 4 h 36 v 36 z" id="path6094"/>
    <path d="M 200,40 V 4 h 36 v 36 z" id="path6096"/>
    <path d="M 240,40 V 4 h 36 v 36 z" id="path6098"/>
    <path d="M 280,40 V 4 h 36 v 36 z" id="path6100"/>
    <path d="M 320,40 V 4 h 36 v 36 z" id="path6102"/>
    <path d="M -40,0 V -36 H -4 V 0 z" id="path6104"/>
    <path d="M 0,0 V -36 H 36 V 0 z" id="path6106"/>
    <path d="M 40,0 V -36 H 76 V 0 z" id="path6108"/>
    <path d="m 80,0 v -36 h 36 V 0 z" id="path6110"/>
    <path d="m 120,0 v -36 h 36 V 0 z" id="path6112"/>
    <path d="m 160,0 v -36 h 36 V 0 z" id="path6114"/>
    <path d="m 200,0 v -36 h 36 V 0 z" id="path6116"/>
    <path d="m 240,0 v -36 h 36 V 0 z" id="path6118"/>
    <path d="m 280,0 v -36 h 36 V 0 z" id="path6120"/>
    <path d="m 320,0 v -36 h 36 V 0 z" id="path6122"/>
  </g>
  <g transform="translate(183.5,390.5)" id="lanthanides" style="fill:#ffbfff;stroke:#000000;stroke-width:1">
    <path d="M 0,0 V -36 H 36 V 0 z" id="path6125"/>
    <path d="M 40,0 V -36 H 76 V 0 z" id="path6127"/>
    <path d="m 80,0 v -36 h 36 V 0 z" id="path6129"/>
    <path d="m 120,0 v -36 h 36 V 0 z" id="path6131"/>
    <path d="m 160,0 v -36 h 36 V 0 z" id="path6133"/>
    <path d="m 200,0 v -36 h 36 V 0 z" id="path6135"/>
    <path d="m 240,0 v -36 h 36 V 0 z" id="path6137"/>
    <path d="m 280,0 v -36 h 36 V 0 z" id="path6139"/>
    <path d="m 320,0 v -36 h 36 V 0 z" id="path6141"/>
    <path d="m 360,0 v -36 h 36 V 0 z" id="path6143"/>
    <path d="m 400,0 v -36 h 36 V 0 z" id="path6145"/>
    <path d="m 440,0 v -36 h 36 V 0 z" id="path6147"/>
    <path d="m 480,0 v -36 h 36 V 0 z" id="path6149"/>
    <path d="m 520,0 v -36 h 36 V 0 z" id="path6151"/>
    <path d="m 560,0 v -36 h 36 V 0 z" id="path6153"/>
  </g>
  <g transform="translate(183.5,430.5)" id="actinidess" style="fill:#ff99cc;stroke:#000000;stroke-width:1">
    <path d="M 0,0 V -36 H 36 V 0 z" id="path6156"/>
    <path d="M 40,0 V -36 H 76 V 0 z" id="path6158"/>
    <path d="m 80,0 v -36 h 36 V 0 z" id="path6160"/>
    <path d="m 120,0 v -36 h 36 V 0 z" id="path6162"/>
    <path d="m 160,0 v -36 h 36 V 0 z" id="path6164"/>
    <path d="m 200,0 v -36 h 36 V 0 z" id="path6166"/>
    <path d="m 240,0 v -36 h 36 V 0 z" id="path6168"/>
    <path d="m 280,0 v -36 h 36 V 0 z" id="path6170"/>
    <path d="m 320,0 v -36 h 36 V 0 z" id="path6172"/>
    <path d="m 360,0 v -36 h 36 V 0 z" id="path6174"/>
    <path d="m 400,0 v -36 h 36 V 0 z" id="path6176"/>
    <path d="m 440,0 v -36 h 36 V 0 z" id="path6178"/>
    <path d="m 480,0 v -36 h 36 V 0 z" id="path6180"/>
    <path d="m 520,0 v -36 h 36 V 0 z" id="path6182"/>
    <path d="m 560,0 v -36 h 36 V 0 z" id="path6184"/>
  </g>
  <text style="text-anchor:middle;font-family:sans" x="80.5" y="37.5" id="text6188">1</text>
  <text style="text-anchor:middle;font-family:sans" x="120.5" y="37.5" id="text6190">2</text>
  <text style="text-anchor:middle;font-family:sans" x="160.5" y="37.5" id="text6192">3</text>
  <text style="text-anchor:middle;font-family:sans" x="200.5" y="37.5" id="text6194">4</text>
  <text style="text-anchor:middle;font-family:sans" x="240.5" y="37.5" id="text6196">5</text>
  <text style="text-anchor:middle;font-family:sans" x="280.5" y="37.5" id="text6198">6</text>
  <text style="text-anchor:middle;font-family:sans" x="320.5" y="37.5" id="text6200">7</text>
  <text style="text-anchor:middle;font-family:sans" x="360.5" y="37.5" id="text6202">8</text>
  <text style="text-anchor:middle;font-family:sans" x="400.5" y="37.5" id="text6204">9</text>
  <text style="text-anchor:middle;font-family:sans" x="440.5" y="37.5" id="text6206">10</text>
  <text style="text-anchor:middle;font-family:sans" x="480.5" y="37.5" id="text6208">11</text>
  <text style="text-anchor:middle;font-family:sans" x="520.5" y="37.5" id="text6210">12</text>
  <text style="text-anchor:middle;font-family:sans" x="560.5" y="37.5" id="text6212">13</text>
  <text style="text-anchor:middle;font-family:sans" x="600.5" y="37.5" id="text6214">14</text>
  <text style="text-anchor:middle;font-family:sans" x="640.5" y="37.5" id="text6216">15</text>
  <text style="text-anchor:middle;font-family:sans" x="680.5" y="37.5" id="text6218">16</text>
  <text style="text-anchor:middle;font-family:sans" x="720.5" y="37.5" id="text6220">17</text>
  <text style="text-anchor:middle;font-family:sans" x="760.5" y="37.5" id="text6222">18</text>
  <text style="text-anchor:middle;font-family:sans" x="41.5" y="77.5" id="text6224">1</text>
  <text style="text-anchor:middle;font-family:sans" x="41.5" y="117.5" id="text6226">2</text>
  <text style="text-anchor:middle;font-family:sans" x="41.5" y="157.5" id="text6228">3</text>
  <text style="text-anchor:middle;font-family:sans" x="41.5" y="197.5" id="text6230">4</text>
  <text style="text-anchor:middle;font-family:sans" x="41.5" y="237.5" id="text6232">5</text>
  <text style="text-anchor:middle;font-family:sans" x="41.5" y="277.5" id="text6234">6</text>
  <text style="text-anchor:middle;font-family:sans" x="41.5" y="317.5" id="text6236">7</text>
  <g font-size="12px" id="g6238" style="font-size:12px;text-anchor:middle;font-family:sans" transform="translate(-0.5,-56.5)">
    <text y="125" x="762" id="text6240">2</text>
    <text y="125" x="82" id="text6242">1</text>
    <text y="141" x="762" id="text6244">He</text>
    <text y="141" x="82" id="text6246">H</text>
    <text y="165" x="122" id="text6248">4</text>
    <text y="165" x="562" id="text6250">5</text>
    <text y="165" x="602" id="text6252">6</text>
    <text y="165" x="642" id="text6254">7</text>
    <text y="165" x="682" id="text6256">8</text>
    <text y="165" x="722" id="text6258">9</text>
    <text y="165" x="762" id="text6260">10</text>
    <text y="165" x="82" id="text6262">3</text>
    <text y="181" x="122" id="text6264">Be</text>
    <text y="181" x="562" id="text6266">B</text>
    <text y="181" x="602" id="text6268">C</text>
    <text y="181" x="642" id="text6270">N</text>
    <text y="181" x="682" id="text6272">O</text>
    <text y="181" x="722" id="text6274">F</text>
    <text y="181" x="762" id="text6276">Ne</text>
    <text y="181" x="82" id="text6278">Li</text>
    <text y="205" x="122" id="text6280">12</text>
    <text y="205" x="562" id="text6282">13</text>
    <text y="205" x="602" id="text6284">14</text>
    <text y="205" x="642" id="text6286">15</text>
    <text y="205" x="682" id="text6288">16</text>
    <text y="205" x="722" id="text6290">17</text>
    <text y="205" x="762" id="text6292">18</text>
    <text y="205" x="82" id="text6294">11</text>
    <text y="221" x="122" id="text6296">Mg</text>
    <text y="221" x="562" id="text6298">Al</text>
    <text y="221" x="602" id="text6300">Si</text>
    <text y="221" x="642" id="text6302">P</text>
    <text y="221" x="682" id="text6304">S</text>
    <text y="221" x="722" id="text6306">Cl</text>
    <text y="221" x="762" id="text6308">Ar</text>
    <text y="221" x="82" id="text6310">Na</text>
    <text y="245" x="122" id="text6312">20</text>
    <text y="245" x="162" id="text6314">21</text>
    <text y="245" x="202" id="text6316">22</text>
    <text y="245" x="242" id="text6318">23</text>
    <text y="245" x="282" id="text6320">24</text>
    <text y="245" x="322" id="text6322">25</text>
    <text y="245" x="362" id="text6324">26</text>
    <text y="245" x="402" id="text6326">27</text>
    <text y="245" x="442" id="text6328">28</text>
    <text y="245" x="482" id="text6330">29</text>
    <text y="245" x="522" id="text6332">30</text>
    <text y="245" x="562" id="text6334">31</text>
    <text y="245" x="602" id="text6336">32</text>
    <text y="245" x="642" id="text6338">33</text>
    <text y="245" x="682" id="text6340">34</text>
    <text y="245" x="722" id="text6342">35</text>
    <text y="245" x="762" id="text6344">36</text>
    <text y="245" x="82" id="text6346">19</text>
    <text y="261" x="122" id="text6348">Ca</text>
    <text y="261" x="162" id="text6350">Sc</text>
    <text y="261" x="202" id="text6352">Ti</text>
    <text y="261" x="242" id="text6354">V</text>
    <text y="261" x="282" id="text6356">Cr</text>
    <text y="261" x="322" id="text6358">Mn</text>
    <text y="261" x="362" id="text6360">Fe</text>
    <text y="261" x="402" id="text6362">Co</text>
    <text y="261" x="442" id="text6364">Ni</text>
    <text y="261" x="482" id="text6366">Cu</text>
    <text y="261" x="522" id="text6368">Zn</text>
    <text y="261" x="562" id="text6370">Ga</text>
    <text y="261" x="602" id="text6372">Ge</text>
    <text y="261" x="642" id="text6374">As</text>
    <text y="261" x="682" id="text6376">Se</text>
    <text y="261" x="722" id="text6378">Br</text>
    <text y="261" x="762" id="text6380">Kr</text>
    <text y="261" x="82" id="text6382">K</text>
    <text y="285" x="122" id="text6384">38</text>
    <text y="285" x="162" id="text6386">39</text>
    <text y="285" x="202" id="text6388">40</text>
    <text y="285" x="242" id="text6390">41</text>
    <text y="285" x="282" id="text6392">42</text>
    <text y="285" x="322" id="text6394">43</text>
    <text y="285" x="362" id="text6396">44</text>
    <text y="285" x="402" id="text6398">45</text>
    <text y="285" x="442" id="text6400">46</text>
    <text y="285" x="482" id="text6402">47</text>
    <text y="285" x="522" id="text6404">48</text>
    <text y="285" x="562" id="text6406">49</text>
    <text y="285" x="602" id="text6408">50</text>
    <text y="285" x="642" id="text6410">51</text>
    <text y="285" x="682" id="text6412">52</text>
    <text y="285" x="722" id="text6414">53</text>
    <text y="285" x="762" id="text6416">54</text>
    <text y="285" x="82" id="text6418">37</text>
    <text y="301" x="482" id="text6420">Ag</text>
    <text y="301" x="122" id="text6422">Sr</text>
    <text y="301" x="162" id="text6424">Y</text>
    <text y="301" x="202" id="text6426">Zr</text>
    <text y="301" x="242" id="text6428">Nb</text>
    <text y="301" x="282" id="text6430">Mo</text>
    <text y="301" x="322" id="text6432">Tc</text>
    <text y="301" x="362" id="text6434">Ru</text>
    <text y="301" x="402" id="text6436">Rh</text>
    <text y="301" x="442" id="text6438">Pd</text>
    <text y="301" x="522" id="text6440">Cd</text>
    <text y="301" x="562" id="text6442">In</text>
    <text y="301" x="602" id="text6444">Sn</text>
    <text y="301" x="642" id="text6446">Sb</text>
    <text y="301" x="682" id="text6448">Te</text>
    <text y="301" x="722" id="text6450">I</text>
    <text y="301" x="762" id="text6452">Xe</text>
    <text y="301" x="82" id="text6454">Rb</text>
    <text y="325" x="122" id="text6456">56</text>
    <text y="325" x="202" id="text6458">72</text>
    <text y="325" x="242" id="text6460">73</text>
    <text y="325" x="282" id="text6462">74</text>
    <text y="325" x="322" id="text6464">75</text>
    <text y="325" x="362" id="text6466">76</text>
    <text y="325" x="402" id="text6468">77</text>
    <text y="325" x="442" id="text6470">78</text>
    <text y="325" x="482" id="text6472">79</text>
    <text y="325" x="522" id="text6474">80</text>
    <text y="325" x="562" id="text6476">81</text>
    <text y="325" x="602" id="text6478">82</text>
    <text y="325" x="642" id="text6480">83</text>
    <text y="325" x="682" id="text6482">84</text>
    <text y="325" x="722" id="text6484">85</text>
    <text y="325" x="762" id="text6486">86</text>
    <text y="325" x="82" id="text6488">55</text>
    <text y="341" x="122" id="text6490">Ba</text>
    <text y="341" x="202" id="text6492">Hf</text>
    <text y="341" x="242" id="text6494">Ta</text>
    <text y="341" x="282" id="text6496">W</text>
    <text y="341" x="322" id="text6498">Re</text>
    <text y="341" x="362" id="text6500">Os</text>
    <text y="341" x="402" id="text6502">Ir</text>
    <text y="341" x="442" id="text6504">Pt</text>
    <text y="341" x="482" id="text6506">Au</text>
    <text y="341" x="522" id="text6508">Hg</text>
    <text y="341" x="562" id="text6510">Tl</text>
    <text y="341" x="602" id="text6512">Pb</text>
    <text y="341" x="642" id="text6514">Bi</text>
    <text y="341" x="682" id="text6516">Po</text>
    <text y="341" x="722" id="text6518">At</text>
    <text y="341" x="762" id="text6520">Rn</text>
    <text y="341" x="82" id="text6522">Cs</text>
    <text y="365" x="122" id="text6524">88</text>
    <text y="365" x="202" id="text6526">104</text>
    <text y="365" x="242" id="text6528">105</text>
    <text y="365" x="282" id="text6530">106</text>
    <text y="365" x="322" id="text6532">107</text>
    <text y="365" x="362" id="text6534">108</text>
    <text y="365" x="402" id="text6536">109</text>
    <text y="365" x="442" id="text6538">110</text>
    <text y="365" x="482" id="text6540">111</text>
    <text y="365" x="522" id="text6542">112</text>
    <text y="365" x="562" id="text6544">113</text>
    <text y="365" x="602" id="text6546">114</text>
    <text y="365" x="642" id="text6548">115</text>
    <text y="365" x="682" id="text6550">116</text>
    <text y="365" x="722" id="text6552">117</text>
    <text y="365" x="762" id="text6554">118</text>
    <text y="365" x="82" id="text6556">87</text>
    <text y="381" x="282" id="text6558">Sg</text>
    <text y="381" x="482" id="text6560">Rg</text>
    <text y="381" x="602" id="text6562">Fl</text>
    <text y="381" x="642" id="text6564">Uup</text>
    <text y="381" x="122" id="text6566">Ra</text>
    <text y="381" x="202" id="text6568">Rf</text>
    <text y="381" x="242" id="text6570">Db</text>
    <text y="381" x="322" id="text6572">Bh</text>
    <text y="381" x="362" id="text6574">Hs</text>
    <text y="381" x="402" id="text6576">Mt</text>
    <text y="381" x="442" id="text6578">Ds</text>
    <text y="381" x="522" id="text6580">Cn</text>
    <text y="381" x="562" id="text6582">Uut</text>
    <text y="381" x="682" id="text6584">Lv</text>
    <text y="381" x="722" id="text6586">Uus</text>
    <text y="381" x="762" id="text6588">Uuo</text>
    <text y="381" x="82" id="text6590">Fr</text>
    <text y="425" x="202" id="text6592">57</text>
    <text y="425" x="242" id="text6594">58</text>
    <text y="425" x="282" id="text6596">59</text>
    <text y="425" x="322" id="text6598">60</text>
    <text y="425" x="362" id="text6600">61</text>
    <text y="425" x="402" id="text6602">62</text>
    <text y="425" x="442" id="text6604">63</text>
    <text y="425" x="482" id="text6606">64</text>
    <text y="425" x="522" id="text6608">65</text>
    <text y="425" x="562" id="text6610">66</text>
    <text y="425" x="602" id="text6612">67</text>
    <text y="425" x="642" id="text6614">68</text>
    <text y="425" x="682" id="text6616">69</text>
    <text y="425" x="722" id="text6618">70</text>
    <text y="425" x="762" id="text6620">71</text>
    <text y="441" x="562" id="text6622">Dy</text>
    <text y="441" x="202" id="text6624">La</text>
    <text y="441" x="242" id="text6626">Ce</text>
    <text y="441" x="282" id="text6628">Pr</text>
    <text y="441" x="322" id="text6630">Nd</text>
    <text y="441" x="362" id="text6632">Pm</text>
    <text y="441" x="402" id="text6634">Sm</text>
    <text y="441" x="442" id="text6636">Eu</text>
    <text y="441" x="482" id="text6638">Gd</text>
    <text y="441" x="522" id="text6640">Tb</text>
    <text y="441" x="602" id="text6642">Ho</text>
    <text y="441" x="642" id="text6644">Er</text>
    <text y="441" x="682" id="text6646">Tm</text>
    <text y="441" x="722" id="text6648">Yb</text>
    <text y="441" x="762" id="text6650">Lu</text>
    <text y="465" x="202" id="text6652">89</text>
    <text y="465" x="242" id="text6654">90</text>
    <text y="465" x="282" id="text6656">91</text>
    <text y="465" x="322" id="text6658">92</text>
    <text y="465" x="362" id="text6660">93</text>
    <text y="465" x="402" id="text6662">94</text>
    <text y="465" x="442" id="text6664">95</text>
    <text y="465" x="482" id="text6666">96</text>
    <text y="465" x="522" id="text6668">97</text>
    <text y="465" x="562" id="text6670">98</text>
    <text y="465" x="602" id="text6672">99</text>
    <text y="465" x="642" id="text6674">100</text>
    <text y="465" x="682" id="text6676">101</text>
    <text y="465" x="722" id="text6678">102</text>
    <text y="465" x="762" id="text6680">103</text>
    <text y="481" x="202" id="text6682">Ac</text>
    <text y="481" x="242" id="text6684">Th</text>
    <text y="481" x="282" id="text6686">Pa</text>
    <text y="481" x="322" id="text6688">U</text>
    <text y="481" x="362" id="text6690">Np</text>
    <text y="481" x="402" id="text6692">Pu</text>
    <text y="481" x="442" id="text6694">Am</text>
    <text y="481" x="482" id="text6696">Cm</text>
    <text y="481" x="522" id="text6698">Bk</text>
    <text y="481" x="562" id="text6700">Cf</text>
    <text y="481" x="602" id="text6702">Es</text>
    <text y="481" x="642" id="text6704">Fm</text>
    <text y="481" x="682" id="text6706">Md</text>
    <text y="481" x="722" id="text6708">No</text>
    <text y="481" x="762" id="text6710">Lr</text>
    <text x="10" y="93" id="text6712" style="text-anchor:start">Grupo</text>
    <text x="20" y="108" id="text6714" style="text-anchor:start">Periodo</text>
  </g>
  <g font-size="14px" id="g6716" style="font-size:14px;text-anchor:end;;font-family:sans" transform="translate(-0.5,-56.5)">
    <text x="169" y="434" id="text6718">Lantanideos</text>
    <text x="169" y="472" id="text6720">Actinideos</text>
  </g>
  <path style="fill:#000000" id="path6722" d="m 11,40.5 h 1 v 10 h -2 l 2.5,4 2.5,-4 h -2 v -10"/>
  <path style="fill:#000000" id="path6724" d="m 51.5,32 v 1 h 10 v -2 l 4,2.5 -4,2.5 v -2 h -10"/>
  style="transform: scale(0.88); transform-origin: top left;"
</svg>
